<svg xmlns="http://www.w3.org/2000/svg" width="13.674" height="8.104" viewBox="0 0 13.674 8.104">
  <g id="arrow-left" transform="translate(18.023 18.077) rotate(180)">
    <path id="Union_3" data-name="Union 3" d="M18504.377,8635.761l-3.342-3.341a.558.558,0,0,1-.162-.4.549.549,0,0,1,.162-.395l3.342-3.346a.574.574,0,0,1,.395-.162.564.564,0,0,1,.395.162.552.552,0,0,1,.164.4.543.543,0,0,1-.164.395l-2.393,2.393h10.914a.558.558,0,1,1,0,1.115h-10.912l2.391,2.389a.558.558,0,1,1-.789.79Z" transform="translate(-18496.373 -8617.999)" fill="#2e2e2e" stroke="#707070" stroke-width="0.3"/>
  </g>
</svg>
