<svg width="221" height="42" viewBox="0 0 221 42" fill="none" xmlns="http://www.w3.org/2000/svg">
<path d="M0.870056 20.567V40.3916L11.0161 40.3347C16.8111 40.3063 21.5611 40.2399 22.1026 40.183C22.6251 40.1261 23.6416 39.965 24.3636 39.8133C30.0541 38.6092 33.2366 35.6986 34.0726 30.9297C34.2531 29.8868 34.2531 27.9337 34.0726 26.8908C33.6546 24.4732 32.4196 22.1409 30.8996 20.8799C30.0826 20.2068 29.0376 19.5905 28.0876 19.2302C27.6696 19.0785 27.2516 18.9174 27.1566 18.8794C27.0141 18.8225 27.1471 18.7088 27.8216 18.3106C29.3321 17.4194 30.5576 16.2343 31.3651 14.9164C32.7616 12.6031 32.7236 8.12808 31.2701 5.40706C30.1966 3.39711 28.0686 2.0129 24.9906 1.31131C22.6631 0.789858 23.3946 0.818301 11.7286 0.780377L0.870056 0.742454V20.567ZM19.8416 7.57819C20.2121 7.62559 20.8771 7.80573 21.3141 7.9669C21.9791 8.22289 22.1976 8.3651 22.7296 8.89603C23.5751 9.73035 23.7746 10.2613 23.8316 11.7498C23.9266 14.0726 23.2616 15.3525 21.5516 16.1679C20.3641 16.7273 20.0601 16.7557 14.6261 16.7936L9.70506 16.8316V12.1575V7.48338H14.4361C17.0296 7.48338 19.4616 7.53078 19.8416 7.57819ZM21.2286 22.8804C22.4921 23.1838 23.2806 23.582 23.9646 24.2551C25.0286 25.3264 25.4181 26.4262 25.4181 28.3414C25.4181 29.3748 25.3801 29.6213 25.1616 30.285C24.8671 31.1572 24.4776 31.7261 23.7461 32.3518C22.9861 32.9965 22.1976 33.3283 20.8866 33.5559C19.8511 33.7265 19.3381 33.7455 14.7306 33.7455H9.70506V28.1897V22.6433L15.1486 22.6813C19.7561 22.7192 20.6776 22.7476 21.2286 22.8804Z" fill="white" fill-opacity="0.4"/>
<path d="M68.8906 20.6144V40.4769H72.8236H76.7566L76.8041 31.9157C76.8326 26.521 76.8896 23.1364 76.9561 22.7476C77.5166 19.3819 78.7136 17.9029 81.3261 17.3814C82.3996 17.1729 83.9766 17.2392 84.8316 17.5331C86.3041 18.0451 87.1211 19.1733 87.6151 21.3919C87.8241 22.3115 87.8336 22.4253 87.8621 31.3942L87.9001 40.4769H91.8426H95.7851L95.7471 30.2565C95.7186 21.1454 95.6996 19.9318 95.5476 19.0216C95.1391 16.4618 94.2936 14.6225 92.9636 13.3521C91.3771 11.8636 89.5816 11.1715 86.7506 10.9724C84.4801 10.8112 82.9601 11.1051 80.8701 12.0816C79.3406 12.8117 78.2576 13.7218 77.3456 15.0776C77.1271 15.381 76.9181 15.637 76.8706 15.637C76.8136 15.637 76.7756 12.897 76.7756 8.19445V0.751942H72.8331H68.8906V20.6144Z" fill="white" fill-opacity="0.4"/>
<path d="M43.1454 5.39764V7.29382H51.2205H59.2955V5.39764V3.50145H51.2205H43.1454V5.39764Z" fill="white" fill-opacity="0.4"/>
<path d="M50.3648 10.9534C47.6383 11.2758 45.5198 11.9774 43.7338 13.134C41.5393 14.5656 40.0098 16.2438 38.8413 18.5476C37.5778 21.0411 37.1503 22.9847 37.1503 26.1608C37.1503 28.5974 37.3498 29.9437 38.0338 32.039C39.0693 35.2625 41.4158 38.0783 44.2658 39.5573C48.7213 41.8517 54.4879 41.937 58.8294 39.7564C60.1024 39.1212 60.7484 38.6661 61.7174 37.6896C62.6864 36.713 63.5224 35.5374 64.1874 34.2196C64.5769 33.4421 65.2799 31.7735 65.2799 31.6123C65.2799 31.5839 63.7124 31.5649 61.7934 31.5649H58.2974L58.0219 32.1148C57.6229 32.8828 56.4449 34.0299 55.6184 34.4376C54.1744 35.1676 52.6448 35.4426 50.9728 35.2719C49.6713 35.1487 48.9778 34.9685 48.1038 34.5419C46.4603 33.7455 45.3203 31.9726 44.9023 29.6024C44.8263 29.1568 44.7598 28.6069 44.7598 28.3793V27.9622H55.1624H65.5649L65.6219 27.7062C65.7169 27.3364 65.5839 23.6958 65.4319 22.558C65.1754 20.586 64.1494 18.2253 62.6199 16.0731C60.8149 13.5417 57.7749 11.655 54.6399 11.1336C53.7659 10.9819 51.0488 10.8681 50.3648 10.9534ZM53.3573 17.1919C55.0104 17.6375 56.1694 18.6045 56.9579 20.2068C57.3854 21.079 57.7749 22.3305 57.7749 22.8614V23.1269L51.3433 23.1079L44.9023 23.0795L44.9308 22.7477C44.9783 22.1504 45.2538 20.9084 45.4438 20.3869C45.5863 20.0172 45.8428 19.6664 46.3653 19.1165C47.4483 17.9788 48.3793 17.4384 49.8423 17.097C50.5738 16.9264 52.5688 16.9833 53.3573 17.1919Z" fill="white" fill-opacity="0.4"/>
<path d="M112.305 11.0008C110.319 11.1051 108.685 11.3706 107.317 11.8162C104.819 12.6221 102.814 14.0821 101.57 15.9783C100.838 17.0876 100.335 18.7088 100.335 19.9129V20.4723H104.277C106.443 20.4723 108.22 20.4438 108.22 20.3964C108.229 20.0362 108.543 18.9648 108.78 18.5002C109.35 17.372 110.253 16.642 111.469 16.3386C112.295 16.13 114.623 16.0921 115.402 16.2722C116.827 16.6041 117.767 17.2677 118.261 18.2727C118.499 18.7657 118.527 18.9079 118.527 19.856C118.527 21.1075 118.385 21.4678 117.729 21.9513C117.131 22.3874 115.953 22.833 114.974 22.9847C114.528 23.0606 112.789 23.2881 111.117 23.5062C106.728 24.0561 105.474 24.3405 103.755 25.1843C102.871 25.6109 102.539 25.8385 101.978 26.3789C100.268 28.0286 99.6031 29.555 99.4986 32.0579C99.3656 35.4426 100.506 37.8887 102.966 39.5005C103.954 40.1452 104.562 40.4106 105.835 40.7614C107.061 41.1027 108.115 41.2355 109.502 41.2355C113.245 41.226 116.228 40.2495 118.404 38.3248C118.841 37.9361 118.907 37.9077 118.964 38.0688C119.002 38.1731 119.04 38.4007 119.04 38.5903C119.05 39.0169 119.363 40.0693 119.572 40.3537L119.724 40.5718H123.714C125.899 40.5718 127.695 40.5434 127.695 40.5149C127.695 40.4865 127.59 40.2874 127.467 40.0693C127.115 39.4531 126.849 38.5239 126.678 37.3388C126.555 36.4287 126.517 34.779 126.46 26.8719C126.403 17.4953 126.403 17.4858 126.184 16.7842C125.747 15.3241 125.139 14.4235 123.914 13.409C122.745 12.4419 120.779 11.6171 118.955 11.3327C117.131 11.0482 114.186 10.906 112.305 11.0008ZM118.451 29.1947C118.423 30.4178 118.356 31.6123 118.29 31.8494C117.919 33.3284 116.589 34.8927 115.316 35.3763C113.616 36.021 110.661 36.0115 109.122 35.3573C108.647 35.1582 108.03 34.5325 107.678 33.8972C107.422 33.4327 107.412 33.3568 107.412 32.1717V30.9297L107.754 30.4178C108.229 29.7067 108.809 29.1663 109.388 28.8913C109.949 28.6259 111.991 28.1044 113.065 27.9622C116.105 27.564 117.435 27.2132 118.242 26.5969C118.423 26.4642 118.432 26.4737 118.47 26.7107C118.48 26.8529 118.48 27.9717 118.451 29.1947Z" fill="white" fill-opacity="0.4"/>
<path d="M146.41 10.9914C145.412 11.0862 144.709 11.2474 143.617 11.6266C141.413 12.3946 140.045 13.3901 138.895 15.0871C138.686 15.3905 138.477 15.637 138.43 15.637C138.373 15.637 138.335 14.8596 138.335 13.646V11.6551H134.44H130.545V26.1608V40.6666H134.535H138.525V32.2002C138.525 27.4502 138.572 23.4303 138.62 23.0321C138.867 21.0601 139.427 19.7328 140.396 18.7752C141.527 17.6754 142.895 17.154 144.7 17.154C147.417 17.154 148.87 18.3581 149.564 21.1834C149.773 22.0272 149.773 22.1409 149.801 31.2521L149.839 40.477H153.829H157.829L157.782 30.541C157.725 19.0028 157.715 18.8226 156.87 16.6705C156.29 15.182 155.72 14.2907 154.779 13.3616C154.105 12.6885 153.801 12.4704 153.06 12.1007C152.566 11.8636 151.796 11.5602 151.35 11.4275C150.067 11.0672 147.816 10.8681 146.41 10.9914Z" fill="white" fill-opacity="0.4"/>
<path d="M174.246 10.9629C172.517 11.0956 170.322 11.6265 169.021 12.2333C166.959 13.2004 164.803 14.9923 163.672 16.6894C162.57 18.339 161.516 20.8799 161.126 22.814C160.841 24.2551 160.765 27.6398 160.984 29.1662C161.535 32.9017 163.425 36.1442 166.351 38.3532C167.767 39.4246 170.246 40.5054 172.184 40.9036C174.911 41.4535 178.407 41.2354 180.896 40.3632C185.323 38.8083 188.03 35.5943 189.066 30.7116C189.17 30.2186 189.256 29.7351 189.256 29.6403C189.256 29.4886 189.009 29.4791 185.465 29.4791H181.675L181.608 29.9721C181.323 32.0579 180.174 33.7739 178.511 34.5893C177.4 35.1297 176.687 35.2909 175.386 35.3004C174.122 35.3004 173.229 35.0823 172.346 34.5514C171.377 33.9636 170.161 32.5225 169.638 31.3374C168.992 29.8678 168.679 27.7631 168.764 25.3549C168.831 23.7431 168.935 23.1364 169.391 21.6953C170.066 19.6095 171.633 17.7986 173.334 17.1634C174.911 16.5756 177.371 16.7652 178.758 17.5806C179.262 17.8745 179.974 18.5855 180.278 19.0975C180.582 19.6284 180.962 20.7756 181.038 21.4393L181.105 21.9892H185H188.885L188.828 21.4393C188.505 18.6329 187.46 16.2912 185.807 14.6699C184.658 13.5417 182.615 12.3376 180.943 11.7972C178.901 11.143 176.25 10.8112 174.246 10.9629Z" fill="white" fill-opacity="0.4"/>
<path d="M204.36 10.9914C199.828 11.5508 196.322 13.6271 193.976 17.135C192.978 18.614 192.133 20.6524 191.781 22.3685C191.373 24.3974 191.344 27.4692 191.715 29.5929C191.924 30.7875 192.503 32.6173 193.007 33.7171C193.89 35.6228 195.781 37.7844 197.614 39.0074C199.714 40.3917 202.469 41.1881 205.5 41.3018C208.264 41.4061 210.696 40.9321 212.957 39.8607C214.173 39.2729 214.886 38.7894 215.817 37.8982C216.862 36.8932 217.698 35.7839 218.363 34.504C218.857 33.5654 219.56 31.8873 219.56 31.6597C219.56 31.5934 218.448 31.5649 216.168 31.5649H212.767L212.482 32.1148C212.093 32.8733 210.943 33.9921 210.107 34.4282C208.692 35.1582 207.105 35.4521 205.452 35.272C203.419 35.0634 202.222 34.5704 201.205 33.5464C200.151 32.4846 199.419 30.7211 199.267 28.9008L199.201 28.1518H209.604H220.006L220.073 27.7915C220.225 26.8529 220.063 24.312 219.75 22.7382C219.085 19.4483 217.147 15.9404 214.943 14.0347C213.214 12.5557 211.067 11.5128 208.967 11.1336C207.941 10.9535 205.348 10.8776 204.36 10.9914ZM208.008 17.2014C209.642 17.647 210.639 18.5003 211.466 20.1405C211.732 20.6903 212.245 22.1694 212.387 22.8141L212.454 23.1269H205.984H199.514V22.852C199.514 22.4633 199.78 21.1644 199.951 20.7093C200.645 18.9079 202.336 17.5427 204.455 17.0971C205.243 16.9359 207.229 16.9928 208.008 17.2014Z" fill="white" fill-opacity="0.4"/>
</svg>
