<svg width="241" height="54" viewBox="0 0 241 54" fill="none" xmlns="http://www.w3.org/2000/svg">
<path d="M22.6952 0.552084C14.6227 1.96897 7.11661 7.35314 3.25735 14.5084C1.38083 17.9798 0 23.2577 0 27.0124C0 34.4865 3.64682 42.3502 9.418 47.3093C10.1615 47.9824 10.8696 48.5845 10.9759 48.7262C11.5424 49.3284 15.7557 51.5954 17.7384 52.3393C32.9984 58.0777 49.9933 48.372 53.3214 32.0424C54.9501 23.8953 52.0822 14.3313 46.2756 8.59291C42.2748 4.66105 38.7696 2.60657 33.8127 1.18968C30.9094 0.374973 25.4215 0.0561736 22.6952 0.552084ZM32.6797 4.62563C35.1582 5.22781 39.3715 7.24687 41.071 8.62834L42.2748 9.65558L41.3188 10.8954C40.115 12.4539 36.539 15.146 33.8835 16.5275C29.9535 18.5111 30.4846 18.7237 27.6521 14.0479C26.2712 11.7809 24.2885 8.7346 23.2971 7.31772C22.3058 5.90083 21.5977 4.66105 21.7039 4.55479C22.1287 4.12972 26.0234 3.7755 28.3248 3.95261C29.5994 4.02346 31.5467 4.34226 32.6797 4.62563ZM19.4025 9.26594C21.9517 13.0207 25.4923 18.8299 25.4923 19.2904C25.4923 20.0697 17.0657 21.6283 9.80746 22.195C6.93958 22.4076 4.49656 22.4784 4.35494 22.3367C3.89466 21.8762 5.84199 17.0234 7.47067 14.5084C8.39122 13.1624 9.87827 11.285 10.8342 10.3994C12.7108 8.62834 16.1805 6.18421 16.8533 6.18421C17.1011 6.18421 18.2341 7.56567 19.4025 9.26594ZM46.3819 14.5793C47.1962 15.8545 48.2584 18.0506 48.7541 19.4321C49.6746 22.1242 50.2765 26.7291 49.6746 26.7291C49.4622 26.7291 48.4354 26.552 47.4086 26.3394C46.3465 26.1269 42.8767 25.9852 39.6547 25.9852H33.8127L32.8214 23.8244C32.2903 22.6201 31.9008 21.6283 31.9362 21.5928C32.007 21.5574 33.5295 20.7427 35.3352 19.7863C38.7342 18.0506 42.4164 15.2523 43.9388 13.3395C44.3991 12.7373 44.824 12.2414 44.8594 12.2414C44.8594 12.206 45.5675 13.2686 46.3819 14.5793ZM28.6435 25.0288C29.0683 26.0206 29.2808 26.9416 29.1391 27.0833C28.9621 27.225 27.6875 27.7563 26.2712 28.2876C21.0666 30.2713 14.8705 35.2658 11.3299 40.2957L9.63043 42.7045L8.32041 41.0042C5.84199 37.7454 4.21331 33.4238 3.71763 28.6419L3.46979 26.4811L9.34718 26.0915C14.9059 25.6664 23.6512 24.3204 25.5277 23.5765C27.3334 22.8326 27.8291 23.0806 28.6435 25.0288ZM47.0192 30.1296C48.5062 30.4484 49.7808 30.7318 49.8162 30.7672C49.8516 30.8026 49.6746 31.6527 49.3914 32.68C48.6478 35.5492 46.9129 38.9851 45.001 41.3938C43.3015 43.4837 40.5399 46.2112 40.0796 46.2112C39.938 46.2112 39.4777 44.511 39.0174 42.3857C38.5571 40.2957 37.5658 36.6827 36.7868 34.3094C36.0433 31.9715 35.406 29.9171 35.406 29.8108C35.406 29.3149 44.3283 29.5628 47.0192 30.1296ZM32.3611 34.7699C33.7773 39.0914 35.229 44.5464 35.583 46.9905L35.8309 48.62L33.9189 49.1513C32.8922 49.4347 31.5821 49.7889 31.0157 49.8952C29.1391 50.3556 23.4388 50.1431 21.1728 49.5764C18.5881 48.9033 14.127 46.8134 13.2418 45.8216C12.6399 45.184 12.6753 45.0777 13.9854 43.2004C15.8619 40.4729 20.6417 36.0451 23.545 34.3448C26.2004 32.8217 30.0243 31.0151 30.697 30.9797C30.9094 30.9797 31.653 32.68 32.3611 34.7699Z" fill="white" fill-opacity="0.4"/>
<path d="M203.939 5.33199C199.997 7.2785 197.954 16.8686 199.427 26.7436C200.234 32.0609 200.139 32.4407 198.002 32.4407C197.384 32.4407 196.909 32.2508 196.909 31.9659C196.909 31.1114 193.584 27.8355 192.159 27.2184C190.449 26.5062 189.499 27.0759 189.072 29.1649C188.644 31.0164 190.354 34.5296 192.207 35.6216C193.727 36.5236 193.917 37.4257 192.919 39.7045C191.399 43.3601 187.884 44.2622 185.462 41.6035C182.897 38.7075 182.422 34.0074 184.274 29.4022C187.552 21.1889 189.214 11.4564 187.884 8.22802C186.839 5.7118 183.467 4.61985 181.329 6.13908C178.527 8.08559 177.244 13.4029 177.244 23.7526C177.197 30.874 177.149 31.4912 176.247 32.1558C174.869 33.2003 174.394 33.1054 173.729 31.5387C173.112 30.1144 169.312 27.2184 168.124 27.2184C167.744 27.2184 167.127 27.7406 166.747 28.3578C165.607 30.0669 166.557 33.0579 168.979 35.4792C170.832 37.3307 170.879 37.4257 170.309 39.2297C168.694 44.6895 163.279 44.7369 160.999 39.3247C160.144 37.2358 160.144 32.2983 160.999 30.6366C161.997 28.6901 164.039 22.2334 164.847 18.2929C165.749 13.9251 165.749 10.5543 164.894 8.4654C163.089 4.24005 157.674 5.28452 155.869 10.2695C154.634 13.5928 154.064 19.9071 154.397 25.8416L154.729 31.3488L153.447 32.3457C151.737 33.7225 151.452 33.6751 151.072 31.9659C150.739 30.3992 148.507 28.4053 146.512 27.9305C144.849 27.5032 143.709 28.6901 143.709 30.8265C143.709 32.868 144.279 34.0549 146.322 36.2388C147.889 37.8529 147.889 37.9479 147.272 39.752C145.229 45.544 139.862 45.2117 137.772 39.1823C136.727 36.0014 136.869 33.5326 138.437 29.8295C140.859 24.0375 142.379 17.106 142.189 12.5958C142.047 8.89268 141.952 8.56035 140.669 7.42093C138.817 5.85423 135.919 6.09161 134.399 7.99064C132.214 10.7442 131.122 17.7707 131.549 26.5537C131.834 33.2003 131.454 35.6691 129.364 39.7995C125.897 46.6834 123.807 44.7369 123.332 34.3872C122.999 27.5032 122.714 26.7911 120.339 27.3608C118.772 27.7881 118.534 28.5002 118.249 33.6276C117.917 39.4196 117.822 39.7995 115.874 41.9359C112.407 45.7339 111.219 44.1672 111.314 35.9539C111.409 28.8325 111.172 28.4053 106.707 27.6456C104.569 27.2658 103.239 26.6961 102.147 25.7466C99.1544 23.1354 97.6344 24.0849 97.6344 28.6426C97.5869 38.4227 94.0244 46.3036 90.9369 43.55C88.8469 41.6985 88.6094 40.2267 89.7969 36.666C92.1719 29.7346 93.0269 24.7496 92.7894 19.005C92.5519 13.3554 92.0294 11.5988 89.6544 9.03511C87.2794 6.51889 83.2894 7.65831 81.4369 11.4089C80.3919 13.5453 80.2969 14.21 80.3444 21.1414L80.3919 28.6426L79.2994 28.3578C78.7294 28.2153 77.0669 28.4053 75.5944 28.8325C65.5244 31.776 66.7594 48.4401 77.2094 49.437C80.7244 49.7694 82.7669 49.1997 84.8569 47.3006L86.7094 45.639L87.7069 46.8734C92.3619 52.8078 99.0119 47.3006 101.387 35.5266C101.862 33.0579 102.479 31.2538 102.812 31.3013C103.097 31.3488 103.714 31.3962 104.189 31.4437C105.804 31.5861 106.232 32.2983 106.469 35.3367C106.897 41.8409 107.182 43.5975 108.084 45.5915C109.842 49.5795 113.832 49.8169 117.774 46.2087L119.769 44.3571L120.624 45.7814C121.717 47.633 124.329 48.7724 126.467 48.3451C128.652 47.9653 130.932 45.8289 132.309 42.9329C132.927 41.6035 133.592 40.5116 133.734 40.5116C133.924 40.5116 134.209 41.1288 134.352 41.8884C134.732 43.6925 137.344 46.636 139.292 47.4431C144.279 49.532 149.267 46.636 151.119 40.5591C151.784 38.2802 152.212 37.7105 153.684 36.856L155.489 35.9064L156.724 39.2772C158.197 43.2177 160.287 46.0663 162.519 46.9683C167.174 48.9148 172.399 45.9713 174.014 40.4641C174.632 38.2802 175.107 37.6156 176.579 36.8085C178.669 35.5741 178.859 35.5266 178.859 36.4761C178.859 37.9479 180.949 42.5531 182.327 44.1198C184.179 46.2562 185.937 47.1582 188.359 47.1582C192.587 47.1582 195.912 44.3571 197.194 39.657C197.859 37.2358 198.144 36.856 199.474 36.4287L201.042 35.9539L202.562 39.1823C205.982 46.2562 211.397 48.535 216.622 44.9743L218.427 43.7874L220.612 44.6895C227.499 47.633 234.577 45.6865 238.804 39.6095C239.802 38.1853 240.609 36.666 240.609 36.2388C240.609 35.3842 238.899 32.9155 238.282 32.9155C238.092 32.9155 237.522 33.8175 236.952 34.9569C234.624 39.752 231.489 41.9359 226.977 41.9359C222.749 41.9359 222.559 41.5086 225.314 38.755C228.164 35.9064 229.162 34.0549 229.542 31.1114C229.874 28.1679 228.829 25.6517 226.739 24.3698C222.512 21.8061 216.527 24.892 214.959 30.4942C214.294 32.9629 214.389 36.9509 215.197 38.8974C215.862 40.5116 215.862 40.5591 214.342 41.4611C212.394 42.648 210.922 42.648 209.259 41.4611C207.882 40.4641 205.459 36.1913 205.459 34.7195C205.459 34.2448 206.219 32.8205 207.122 31.5387C212.489 24.0849 213.867 7.46841 209.307 5.56937C207.027 4.66733 205.412 4.57238 203.939 5.33199ZM207.359 9.41491C208.404 10.6493 208.547 16.3939 207.597 20.1919C206.789 23.6102 204.794 28.4053 203.987 28.9275C203.227 29.3548 202.894 26.5537 202.847 20.3344C202.847 15.4443 203.037 13.6877 203.702 11.9311C204.842 8.98763 206.219 8.03812 207.359 9.41491ZM184.369 11.8362C184.749 13.8302 183.942 19.005 182.517 23.4203L181.519 26.5062L181.139 24.1324C180.664 20.9041 181.424 12.7382 182.422 11.2665C183.467 9.69977 183.989 9.8422 184.369 11.8362ZM161.522 12.1685C161.854 13.8302 161.237 18.1505 160.049 22.4708C158.957 26.5062 158.862 26.6486 158.434 25.5567C157.437 23.1354 158.339 12.9756 159.717 11.4564C160.809 10.222 161.189 10.3644 161.522 12.1685ZM138.199 14.6847C138.199 18.1505 136.299 26.7436 135.587 26.7436C135.017 26.7436 135.064 17.011 135.682 14.3999C136.727 9.8422 138.247 10.0321 138.199 14.6847ZM87.5644 12.5958C88.2294 13.4504 89.0844 18.3404 89.0844 21.5687C89.0844 26.1264 87.1369 34.0074 86.2344 33.1054C85.5694 32.4407 84.2869 26.8385 84.0019 23.4203C83.6694 19.2424 84.1444 15.3969 85.2844 13.5453C86.2819 11.8837 86.8044 11.6938 87.5644 12.5958ZM224.839 28.2628C225.599 29.0224 225.552 31.2538 224.744 32.8205C224.364 33.5326 223.082 35.0519 221.894 36.1913L219.757 38.2802L219.234 36.9984C218.617 35.2892 218.617 32.1558 219.282 30.874C220.754 28.0254 223.367 26.7911 224.839 28.2628ZM81.0569 33.2953C81.4369 33.77 82.3869 35.6216 83.0994 37.4731C84.5719 41.3662 84.3819 42.4581 81.9594 44.4521C79.1094 46.8734 74.9769 45.8764 73.1719 42.4106C71.5094 39.2297 73.0294 33.9124 75.9269 32.6781C77.6844 31.871 79.9644 32.2033 81.0569 33.2953Z" fill="white" fill-opacity="0.4"/>
<path d="M118.107 18.008C116.825 19.6222 116.872 20.5717 118.107 22.1859C119.437 23.895 122.05 23.7526 123.427 21.9011C125.992 18.4353 120.767 14.6373 118.107 18.008Z" fill="white" fill-opacity="0.4"/>
</svg>
