<svg width="125" height="41" viewBox="0 0 125 41" fill="none" xmlns="http://www.w3.org/2000/svg">
<path d="M14.992 0.245044C10.1023 0.624275 6.53614 3.41003 5.47872 7.66663C5.23033 8.68027 5.20549 8.92483 5.1913 10.8458L5.17356 12.5754H2.58678H0V16.4031V20.2309H2.59033H5.18065V30.4737V40.7164L9.66227 40.7093L14.1403 40.6987L14.151 30.463L14.1581 20.2309H18.4871H22.8162V30.4737V40.7164H27.3049H31.7936V26.6459V12.5754H22.9758H14.1581V11.5511C14.1581 10.8174 14.1723 10.4524 14.2078 10.2645C14.4455 9.03115 15.3965 8.14864 16.7449 7.91472C16.9897 7.87219 17.5504 7.86156 19.9278 7.86156H22.8162V4.03381V0.206057L19.101 0.209601C17.0536 0.213146 15.2084 0.230867 14.992 0.245044Z" fill="white" fill-opacity="0.4"/>
<path d="M70.9498 12.1501C66.1488 12.4265 62.4265 14.6417 60.1591 18.5722C59.1017 20.401 58.4523 22.4957 58.1862 24.927C58.1152 25.5756 58.1259 27.4895 58.2039 28.1345C58.3494 29.336 58.5765 30.3603 58.9349 31.4306C60.0314 34.709 62.1143 37.3636 64.8962 39.0223C67.0749 40.3266 69.6936 41 72.5643 41C77.7875 41 82.1591 38.7671 84.5046 34.904C84.8417 34.3511 85.374 33.2594 85.3278 33.2169C85.3101 33.1956 77.5853 30.9911 77.3901 30.9486C77.3049 30.9309 77.2872 30.9522 77.1169 31.2959C76.6059 32.3167 75.7827 32.9901 74.5656 33.3799C73.5791 33.6954 72.2023 33.7485 71.0562 33.5182C68.8704 33.0787 67.4688 31.5724 67.011 29.18C66.9827 29.0241 66.9578 28.8682 66.9578 28.8327C66.9578 28.776 67.4298 28.7725 76.3753 28.7725C82.4891 28.7725 85.8033 28.7618 85.8175 28.737C85.8743 28.6484 85.9382 27.851 85.9595 27.0004C86.0269 24.2926 85.633 22.0385 84.714 19.8836C83.8198 17.796 82.4075 15.9849 80.6724 14.6984C78.1707 12.8448 74.7004 11.9374 70.9498 12.1501ZM72.7594 18.8841C73.9446 19.0223 74.892 19.4476 75.6727 20.2026C76.4853 20.9858 76.9749 22.0101 77.1204 23.2329L77.1453 23.4207H72.0462H66.9507L66.9756 23.2683C67.0252 22.96 67.2417 22.1767 67.3623 21.8612C68.0046 20.2026 68.9875 19.3307 70.602 18.994C71.2443 18.8558 72.1278 18.8132 72.7594 18.8841Z" fill="white" fill-opacity="0.4"/>
<path d="M32.2548 12.586C32.2548 12.6037 42.2187 40.4967 42.2648 40.6172L42.3038 40.7164H46.239C49.3368 40.7164 50.1777 40.7058 50.199 40.6739C50.2664 40.5711 60.2374 12.7668 60.2161 12.7419C60.2055 12.7278 58.151 12.7207 55.6564 12.7242L51.118 12.7349L48.6874 20.8936C47.3497 25.3806 46.2532 29.0489 46.2461 29.0418C46.239 29.0382 45.1426 25.3345 43.8119 20.8121L41.3848 12.5931L36.818 12.5825C34.3093 12.5789 32.2548 12.5789 32.2548 12.586Z" fill="white" fill-opacity="0.4"/>
<path d="M87.9358 26.6354L87.9465 40.6988H92.5061H97.0658L97.0836 32.9902L97.1049 25.2815L97.1829 24.7924C97.4349 23.2507 97.8891 22.2335 98.6803 21.4325C99.2481 20.8548 99.8158 20.5464 100.703 20.3267C100.99 20.2594 101.118 20.2523 103.304 20.2416L105.6 20.2275V30.4702V40.7166H110.159H114.716L114.73 33.0681C114.74 24.6719 114.73 25.1716 114.953 24.1651C115.461 21.9039 116.724 20.5677 118.629 20.2877C118.942 20.2416 119.428 20.231 121.582 20.231H124.158V20.0432C124.158 19.9439 124.19 18.3526 124.229 16.5096C124.268 14.6666 124.3 13.0256 124.3 12.8661V12.5684L122.27 12.5861C120.627 12.6003 120.159 12.6145 119.829 12.6606C118.353 12.8732 117.363 13.3375 116.454 14.2377C115.851 14.8367 115.447 15.4144 114.96 16.3607L114.719 16.8356V14.702V12.572L108.662 12.5861C102.087 12.5968 102.378 12.5897 101.469 12.7917C99.9826 13.1213 98.8187 13.9471 97.9103 15.3223C97.6655 15.6909 97.3426 16.2615 97.1936 16.5875L97.0871 16.8108V14.6914L97.0836 12.5755H92.5061H87.9287L87.9358 26.6354Z" fill="white" fill-opacity="0.4"/>
</svg>
