<svg width="184" height="51" viewBox="0 0 184 51" fill="none" xmlns="http://www.w3.org/2000/svg">
<path d="M158.942 19.8934V39.7501H162.192H165.441V32.702V25.6539H166.24H167.025L171.682 32.702L176.339 39.7501H180.035H183.718L182.851 38.4896C177.774 31.1297 173.253 24.4611 173.212 24.2985C173.171 24.1629 173.469 23.9461 174.106 23.6479C177.165 22.1976 179.778 19.1615 180.97 15.6916C181.335 14.6073 181.687 12.7504 181.687 11.8829V11.2866H178.438H175.189V11.6525C175.175 11.8694 175.094 12.52 174.986 13.1164C174.322 16.8708 171.168 19.3648 166.7 19.6494L165.441 19.7308V9.87694V0.0366856H162.192H158.942V19.8934Z" fill="white" fill-opacity="0.4"/>
<path d="M46.9786 10.6224C43.0389 11.4763 39.8709 13.7399 37.7183 17.2504C37.0684 18.3076 36.378 19.9341 36.2155 20.8015C36.1614 21.0862 36.0666 21.3166 36.0124 21.3166C35.6875 21.3166 33.6297 15.7459 32.8986 12.8724L32.4518 11.151H26.725H20.9847V18.6464C20.9847 22.9024 20.9305 26.6298 20.8493 27.2804C20.4432 30.6418 18.9945 33.0137 16.693 34.0845C15.8807 34.464 15.6234 34.5182 14.2696 34.5725C12.997 34.6267 12.5908 34.586 11.8056 34.342C9.28742 33.583 7.54095 31.4279 6.8911 28.3105C6.66095 27.1855 6.63387 26.3587 6.63387 19.1073V11.151H3.31694H0V19.1344C0 24.0816 0.054154 27.5243 0.148924 28.1749C0.676926 32.0243 2.74832 35.7517 5.56433 37.9203C10.8308 42.0001 18.8185 41.4715 23.3675 36.7411C24.9109 35.1417 25.8992 33.5017 26.5896 31.4144C27.3749 29.0424 27.3884 28.8933 27.4696 22.2654C27.5103 18.8768 27.5915 16.1931 27.6321 16.3016C27.6863 16.41 28.0383 17.4808 28.4173 18.6735C29.5952 22.3602 31.4229 26.2503 33.4401 29.3813L34.2389 30.6147L32.4924 40.604C31.5177 46.107 30.7324 50.7018 30.7324 50.8102C30.7324 50.9729 31.2604 51 34.0494 51C35.8771 51 37.3663 50.9729 37.3663 50.9458C37.3663 50.9051 37.8266 48.0859 38.3817 44.6702C38.9368 41.2546 39.4648 38.0559 39.546 37.5408C39.6272 37.0393 39.7355 36.6327 39.7761 36.6327C39.8303 36.6327 40.3583 36.9986 40.954 37.4595C43.0119 39.0182 45.8414 40.1974 48.4002 40.5634C51.8796 41.0513 55.7787 40.1432 58.7707 38.1236C60.6796 36.836 62.6156 34.6131 63.6581 32.4987C65.6753 28.4596 65.7701 23.187 63.9153 19.0802C62.399 15.7459 59.407 12.8724 56.0088 11.4763C54.2353 10.758 52.7731 10.4733 50.3633 10.4056C48.5762 10.3513 48.0753 10.3784 46.9786 10.6224ZM53.0439 16.7895C55.1017 17.4808 56.6181 18.8226 57.6199 20.8286C58.4458 22.5229 58.6624 23.6343 58.5947 25.925C58.5405 27.4837 58.4728 27.9174 58.1479 28.8933C57.3762 31.1568 55.9547 32.824 53.951 33.7863C51.4599 34.9791 48.8605 34.9384 46.0851 33.6508C45.4759 33.3662 44.6229 32.8918 44.1897 32.5936C43.3774 32.0379 41.7257 30.4114 41.1706 29.6117L40.8592 29.1644L41.1571 27.3888C42.4432 19.6494 45.6112 16.0712 50.9048 16.3829C51.5953 16.4236 52.4482 16.5862 53.0439 16.7895Z" fill="white" fill-opacity="0.4"/>
<path d="M119.004 10.541C113.48 11.544 108.945 15.7187 107.415 21.2081C106.941 22.9159 106.792 26.8195 107.144 28.6899C108.214 34.342 112.492 38.9504 118.029 40.3736C119.667 40.8073 122.24 40.9428 123.891 40.6989C129.266 39.9127 133.991 36.0227 135.737 30.8993C136.766 27.9174 136.875 24.3933 136.049 21.2217C135.033 17.3181 132.028 13.6991 128.291 11.8964C125.489 10.541 121.915 10.026 119.004 10.541ZM124.013 16.7759C126.761 17.5078 128.995 19.8256 129.753 22.7397C130.065 23.9054 130.173 25.9385 129.984 27.1448C129.55 29.9098 128.237 32.0378 126.125 33.4068C125.123 34.0574 123.932 34.4233 122.24 34.6266C121.129 34.7486 120.777 34.7351 119.911 34.5453C116.905 33.8676 114.658 31.6176 113.778 28.3646C113.399 26.9957 113.44 24.1629 113.832 22.7397C114.969 18.7548 118.246 16.288 122.118 16.5048C122.754 16.5455 123.607 16.6675 124.013 16.7759Z" fill="white" fill-opacity="0.4"/>
<path d="M152.241 11.0291C150.115 11.3408 148.436 12.0999 147.015 13.4282L146.081 14.2956V12.7911V11.2866H142.831H139.582V25.4506V39.6146H142.831H146.081V33.6779C146.094 23.3497 146.392 21.3166 148.26 19.3513C149.56 17.9823 151.374 17.3724 154.298 17.3317L155.964 17.3182V14.0923V10.88L154.515 10.8935C153.703 10.9071 152.687 10.9613 152.241 11.0291Z" fill="white" fill-opacity="0.4"/>
<path d="M65.1745 11.517C65.3235 12.032 72.4312 39.6146 72.4312 39.6824C72.4312 39.723 74.2183 39.7501 76.398 39.7501H80.3512L83.0454 29.815C84.5346 24.3662 85.7937 19.7985 85.8478 19.6901C85.9697 19.4461 85.7802 18.8226 88.8805 30.2894L91.4393 39.7501H95.379H99.3187L103.15 25.681C105.262 17.9552 107.022 11.5441 107.049 11.4492C107.103 11.3272 106.359 11.2866 103.597 11.2866H100.077L99.9279 11.9236C99.7384 12.8317 95.6091 29.937 95.4196 30.6011C95.2977 31.0484 95.2571 31.1026 95.1759 30.8722C95.1217 30.7231 93.9574 26.2503 92.59 20.9371L90.1125 11.2866H85.902H81.7051L79.214 21.0184C77.8466 26.3587 76.6823 30.8315 76.6146 30.94C76.5334 31.0891 76.4927 31.062 76.4386 30.8044C76.3844 30.6147 75.3149 26.1689 74.0558 20.9235C72.7832 15.6781 71.7543 11.3679 71.7543 11.3408C71.7543 11.3137 70.2515 11.2866 68.4238 11.2866C65.3235 11.2866 65.1068 11.3001 65.1745 11.517Z" fill="white" fill-opacity="0.4"/>
</svg>
